<svg xmlns="http://www.w3.org/2000/svg" viewBox="0 0 64 64" role="img" aria-label="구룡투">
  <rect width="64" height="64" rx="14" fill="#f7f7f4"/>

  <path
    d="M13.2 38.8C9.9 28.2 14 16.1 25 10.4c8.8-4.6 19.2-2.9 26.1 3.5-8.9-2.2-19.4-.4-27.1 6.6-7.5 6.8-10.1 16.8-7.6 25.5l-3.9-2.9-2.7 5.3c-.2-3.5.8-6.9 3.4-9.6z"
    fill="#e11d23"
  />
  <path
    d="M19.5 17.8 9.3 21.9l4.9-8.9-2.6-4.8 7.5 1.5 3.6-5.9 1.2 6.9 7.1-1.6-4.5 5.9 4.8 4.7-7.4-.4-3.5 6.9z"
    fill="#e11d23"
  />
  <path
    d="m17.5 21.1 4.2 1.4c-1.2 2-2.7 3.2-4.5 3.8-2.1.7-4 .1-5.4-1.5 2.6.1 4.5-1.1 5.7-3.7z"
    fill="#e11d23"
  />
  <path
    d="m46.3 20.2 5.7-2.8-2.1 6.4 3.3 3.2-5.4-.6c-1.6-2.5-2.1-4.5-1.5-6.2z"
    fill="#e11d23"
  />
  <circle cx="16.8" cy="17.3" r="1.25" fill="#f7f7f4"/>

  <path
    d="M50.8 25.2C54.1 35.8 50 47.9 39 53.6c-8.8 4.6-19.2 2.9-26.1-3.5 8.9 2.2 19.4.4 27.1-6.6 7.5-6.8 10.1-16.8 7.6-25.5l3.9 2.9 2.7-5.3c.2 3.5-.8 6.9-3.4 9.6z"
    fill="#075aae"
  />
  <path
    d="m44.5 46.2 10.2-4.1-4.9 8.9 2.6 4.8-7.5-1.5-3.6 5.9-1.2-6.9-7.1 1.6 4.5-5.9-4.8-4.7 7.4.4 3.5-6.9z"
    fill="#075aae"
  />
  <path
    d="m46.5 42.9-4.2-1.4c1.2-2 2.7-3.2 4.5-3.8 2.1-.7 4-.1 5.4 1.5-2.6-.1-4.5 1.1-5.7 3.7z"
    fill="#075aae"
  />
  <path
    d="m17.7 43.8-5.7 2.8 2.1-6.4-3.3-3.2 5.4.6c1.6 2.5 2.1 4.5 1.5 6.2z"
    fill="#075aae"
  />
  <circle cx="47.2" cy="46.7" r="1.25" fill="#f7f7f4"/>

  <circle cx="32" cy="32" r="13.1" fill="#f7f7f4"/>
</svg>
