<svg xmlns="http://www.w3.org/2000/svg" width="1024" height="1024" viewBox="0 0 1024 1024">
<g>
<path d="M 579.52 927.67 C570.01,929.45 539.24,930.26 530.00,928.97 C496.29,924.29 470.07,914.64 431.43,892.67 C417.15,884.55 403.54,879.82 394.00,879.64 L 386.50 879.50 L 386.60 883.10 C386.83,891.36 405.09,910.46 422.32,920.47 C424.97,922.01 426.77,923.63 426.32,924.07 C425.49,924.89 408.85,922.76 401.50,920.90 C381.25,915.78 358.57,905.80 342.00,894.72 C322.78,881.88 310.41,869.66 289.80,843.16 C272.43,820.85 261.35,808.79 252.17,802.23 C245.35,797.36 239.00,794.68 236.54,795.62 C231.16,797.69 241.58,826.48 255.11,846.91 C257.81,850.98 259.79,854.54 259.52,854.82 C258.85,855.48 250.49,850.22 241.14,843.25 C231.10,835.77 211.88,816.58 204.23,806.40 C192.73,791.10 182.13,771.92 175.41,754.24 C170.09,740.23 167.21,729.92 160.54,701.00 C154.21,673.52 144.99,652.90 138.73,652.18 C136.36,651.91 135.70,652.42 134.23,655.68 C132.79,658.86 132.51,662.43 132.59,677.00 C132.63,686.62 133.15,696.41 133.73,698.75 C134.31,701.09 134.42,703.00 133.96,703.00 C132.67,703.00 124.49,689.33 120.18,679.99 C100.24,636.66 97.89,582.49 113.82,533.00 C120.69,511.64 123.18,494.00 119.32,494.00 C115.11,494.00 103.67,510.15 99.48,522.00 C97.79,526.79 97.81,506.10 99.51,495.50 C102.90,474.35 111.64,452.12 123.30,435.02 C139.48,411.29 161.71,393.61 184.90,386.03 C190.07,384.34 194.48,383.15 194.72,383.38 C194.95,383.61 194.04,385.98 192.69,388.65 C188.90,396.19 183.11,413.43 180.48,425.00 C173.12,457.35 172.49,492.13 178.59,529.00 C184.87,566.98 200.45,609.43 220.35,642.81 C229.66,658.42 229.94,658.85 236.83,668.50 C275.53,722.64 324.73,762.26 381.30,784.85 C439.63,808.14 501.25,813.02 558.76,798.93 C593.22,790.48 623.37,777.29 653.00,757.69 C662.83,751.19 678.20,739.05 682.33,734.51 C683.33,733.40 685.85,730.69 687.92,728.47 C691.63,724.51 694.61,720.00 693.51,720.00 C693.20,720.00 689.92,721.51 686.23,723.37 C677.06,727.95 668.88,730.73 653.28,734.57 C641.14,737.55 626.00,743.33 626.00,744.99 C626.00,745.37 624.90,746.18 623.55,746.79 C622.21,747.41 619.27,749.57 617.03,751.59 C614.78,753.62 612.73,755.07 612.47,754.80 C611.83,754.16 615.23,744.43 618.00,739.00 C620.92,733.28 629.97,723.80 637.24,718.85 C640.40,716.70 650.44,711.37 659.55,707.01 C674.11,700.03 676.96,698.26 683.06,692.37 C686.88,688.69 690.00,685.30 690.00,684.84 C690.00,683.45 670.86,683.91 665.92,685.41 C663.41,686.17 658.12,688.43 654.17,690.41 C650.23,692.40 647.00,693.51 647.00,692.88 C647.00,690.30 653.71,680.29 658.93,675.08 C668.31,665.72 682.34,659.68 707.58,654.10 C725.44,650.16 727.70,649.50 735.71,645.91 C749.08,639.91 764.34,626.15 769.65,615.29 C773.05,608.33 772.65,600.81 768.68,597.40 C765.96,595.06 758.39,593.02 752.20,592.96 L 748.50 592.93 L 751.20 590.71 C755.93,586.84 766.61,581.98 773.67,580.48 C791.95,576.61 813.19,580.50 820.37,589.03 C823.85,593.16 823.69,594.39 819.40,596.93 C815.91,598.98 815.85,599.13 817.43,601.28 C819.92,604.68 823.95,613.27 823.44,614.10 C823.19,614.51 820.52,613.98 817.51,612.92 C814.51,611.86 810.50,611.00 808.60,611.00 C805.52,611.00 805.09,611.34 804.50,614.25 C802.89,622.14 795.16,635.44 787.05,644.27 C782.62,649.10 779.00,653.84 779.00,654.80 C779.00,660.16 787.62,664.68 795.96,663.69 C805.48,662.56 815.97,655.87 833.40,639.80 C837.31,636.20 839.24,634.46 839.38,632.59 C839.51,630.80 838.02,628.89 835.06,625.12 L 834.86 624.86 C833.28,622.85 832.00,620.94 832.00,620.61 C832.00,620.27 835.07,620.00 838.83,620.00 C843.94,620.00 846.79,620.57 850.13,622.26 C853.97,624.20 854.94,624.35 857.05,623.27 C858.40,622.58 861.19,621.36 863.25,620.56 C865.31,619.76 867.00,618.44 867.00,617.63 C867.00,616.82 865.42,614.09 863.50,611.57 C861.58,609.05 860.00,606.70 860.00,606.36 C860.00,606.02 862.36,606.05 865.25,606.43 C871.27,607.23 881.09,611.33 883.60,614.11 C884.54,615.15 886.06,616.00 886.98,616.00 C887.90,616.00 890.73,617.37 893.27,619.05 C896.99,621.52 898.21,623.10 899.63,627.30 C902.02,634.37 902.05,646.15 899.68,652.00 C897.81,656.60 891.51,664.00 889.45,664.00 C888.82,664.00 887.50,662.23 886.53,660.06 C885.55,657.89 884.09,655.86 883.28,655.55 C882.47,655.24 878.59,656.68 874.66,658.75 C865.58,663.51 853.67,675.21 849.58,683.38 L 846.65 689.21 L 848.83 697.96 C852.31,712.00 851.73,715.60 843.17,732.50 C833.78,751.06 827.26,770.19 823.91,789.00 C821.42,802.95 820.33,830.37 821.84,840.97 C822.42,845.08 822.66,848.68 822.36,848.97 C820.43,850.89 810.11,830.49 806.88,818.35 C802.82,803.12 803.18,773.11 807.62,755.64 C808.44,752.42 808.95,749.61 808.74,749.41 C808.11,748.77 797.41,766.11 793.26,774.50 C787.65,785.84 781.59,803.35 778.02,818.50 C770.52,850.39 767.34,860.32 759.75,875.50 C752.35,890.30 739.15,906.99 728.23,915.34 C721.76,920.29 712.73,926.07 712.24,925.58 C712.05,925.39 714.40,921.55 717.47,917.05 C731.18,896.91 737.72,877.30 739.99,849.50 C743.78,803.16 748.17,786.16 762.37,762.77 C764.92,758.57 767.00,754.90 767.00,754.60 C767.00,754.31 764.91,755.48 762.36,757.20 C759.81,758.92 752.50,761.98 746.11,764.01 C734.21,767.79 727.67,770.72 719.34,776.00 C716.74,777.65 714.24,779.00 713.79,779.00 C713.34,779.00 714.15,776.64 715.60,773.75 C718.36,768.27 723.23,761.91 736.83,746.05 C741.29,740.85 744.75,736.42 744.53,736.20 C744.31,735.97 740.41,737.75 735.87,740.15 C727.09,744.78 717.18,753.24 711.62,760.86 C703.71,771.70 696.03,791.62 696.01,801.35 C696.00,804.11 696.24,803.97 703.57,797.13 C712.75,788.55 719.79,784.21 731.00,780.21 C732.21,779.78 733.30,779.38 734.30,779.02 C740.00,776.97 742.42,776.09 742.97,776.76 C743.37,777.25 742.76,778.58 741.69,780.88 C741.43,781.43 741.15,782.03 740.85,782.69 C731.86,802.64 723.42,819.13 718.40,826.60 C710.47,838.40 697.41,850.13 685.25,856.38 C680.57,858.78 666.00,864.06 666.00,863.35 C666.00,863.02 669.75,859.09 674.33,854.62 C683.72,845.45 688.97,836.41 689.78,827.98 C690.23,823.27 690.12,823.00 687.88,823.00 C686.16,823.00 681.83,826.74 672.01,836.75 C644.94,864.31 621.98,879.22 587.00,891.95 C580.67,894.25 573.70,896.79 571.50,897.59 C564.89,900.01 563.45,901.51 564.84,904.55 C567.11,909.53 582.52,914.85 601.29,917.14 C606.67,917.79 610.72,918.63 610.29,919.00 C608.01,920.94 593.17,925.12 579.52,927.67 ZM 792.93 713.13 C792.31,714.28 792.19,715.04 792.65,714.82 C793.12,714.59 797.33,712.54 802.00,710.26 C806.67,707.99 811.94,704.64 813.70,702.81 C816.86,699.54 820.16,693.09 821.40,687.75 C822.00,685.16 821.84,685.00 818.61,685.00 C813.74,685.00 803.06,690.78 800.27,694.93 C799.01,696.80 797.10,701.18 796.02,704.67 C794.94,708.17 793.55,711.97 792.93,713.13 Z" fill="rgb(6,78,161)"/>
<path d="M 258.94 214.50 C247.47,228.09 245.00,229.68 248.90,220.97 C250.32,217.81 250.90,217.21 251.20,218.61 C251.54,220.20 252.32,219.76 256.05,215.88 C258.50,213.35 261.29,210.20 262.25,208.88 C263.21,207.57 266.02,203.87 268.49,200.65 C270.96,197.43 274.81,191.46 277.06,187.40 C281.75,178.89 283.31,177.46 279.40,185.25 C275.83,192.36 267.12,204.81 258.94,214.50 ZM 380.05 254.47 C377.05,256.02 367.00,256.62 367.00,255.25 C367.00,254.84 369.22,252.02 371.93,249.00 C376.70,243.68 381.70,235.37 380.73,234.39 C380.47,234.13 378.73,235.14 376.88,236.64 C373.80,239.12 373.87,238.96 377.59,234.93 C381.84,230.33 383.07,228.86 385.53,225.50 C386.81,223.74 386.82,223.98 385.60,227.57 C383.10,234.92 379.15,241.71 373.47,248.41 L 367.87 255.00 L 372.49 255.00 C375.02,255.00 378.43,254.31 380.05,253.47 C381.67,252.64 383.00,252.17 383.00,252.45 C383.00,252.72 381.67,253.64 380.05,254.47 ZM 338.00 272.50 C333.04,275.16 332.00,275.44 332.00,274.11 C332.00,272.21 340.92,261.24 345.10,257.99 C348.68,255.21 348.37,255.68 343.41,260.54 C336.37,267.43 334.34,270.53 336.36,271.31 C337.09,271.59 338.32,271.41 339.09,270.92 C339.87,270.43 340.95,270.04 341.50,270.06 C342.05,270.08 340.48,271.17 338.00,272.50 ZM 278.00 241.90 C276.08,243.01 274.18,243.94 273.79,243.96 C272.90,244.01 276.43,235.66 279.15,231.26 C282.43,225.95 282.31,227.55 278.99,233.52 C275.67,239.49 275.73,241.07 279.25,240.35 C280.81,240.03 280.42,240.51 278.00,241.90 ZM 157.80 332.47 C156.40,333.61 152.13,333.78 151.72,332.71 C151.36,331.78 152.17,331.54 154.66,331.83 C156.56,332.05 157.97,332.34 157.80,332.47 ZM 806.39 761.32 C806.77,759.07 807.18,756.87 807.64,754.75 C808.56,750.47 806.97,751.48 802.73,757.90 C805.83,752.92 808.44,749.10 808.74,749.41 C808.95,749.61 808.44,752.42 807.62,755.64 C807.17,757.41 806.76,759.32 806.39,761.32 ZM 923.10 477.29 C923.67,478.27 923.99,479.54 923.80,480.10 C923.27,481.70 922.00,479.90 922.03,477.58 C922.06,475.66 922.14,475.64 923.10,477.29 ZM 374.00 133.00 C374.00,133.55 373.58,134.00 373.06,134.00 C372.54,134.00 371.84,133.55 371.50,133.00 C371.16,132.45 371.58,132.00 372.44,132.00 C373.30,132.00 374.00,132.45 374.00,133.00 ZM 795.25 770.68 C792.49,776.00 789.92,781.70 787.56,787.71 C789.43,782.82 791.37,778.31 793.26,774.50 C793.82,773.37 794.50,772.07 795.25,770.68 ZM 806.88 818.35 C807.89,822.14 809.58,826.72 811.50,831.19 C809.58,826.72 807.89,822.14 806.88,818.35 C805.10,811.69 804.17,802.54 804.07,792.64 C804.20,802.50 805.13,811.80 806.88,818.35 Z" fill="rgb(207,180,187)"/>
<path d="M 258.94 214.50 C267.12,204.81 275.83,192.36 279.40,185.25 C281.83,180.42 282.15,179.13 280.92,180.89 C281.44,179.97 281.98,179.01 282.55,178.00 C286.01,171.83 290.03,161.47 292.50,152.38 C300.81,121.75 308.33,106.60 321.78,93.42 C326.82,88.48 334.59,83.26 335.53,84.19 C335.71,84.37 333.27,89.69 330.10,96.01 C321.36,113.47 317.33,127.74 314.99,149.50 C312.33,174.27 304.60,194.81 289.70,216.71 C282.00,228.02 277.36,235.88 276.61,238.80 C276.83,237.68 277.62,235.97 278.99,233.52 C282.31,227.55 282.43,225.95 279.15,231.26 C276.43,235.66 272.90,244.01 273.79,243.96 C274.18,243.94 276.08,243.01 278.00,241.90 C280.42,240.51 280.81,240.03 279.25,240.35 C277.86,240.64 277.00,240.56 276.69,239.99 C277.85,240.74 291.48,238.21 299.89,235.66 C302.86,234.76 307.27,232.86 309.69,231.44 C312.11,230.02 314.50,229.01 315.00,229.18 C316.90,229.85 312.39,236.42 303.78,245.51 C298.87,250.70 295.13,255.40 295.47,255.95 C296.60,257.78 306.19,251.66 313.60,244.38 C319.47,238.60 321.71,235.46 325.38,227.81 C329.73,218.74 332.33,210.67 331.25,209.58 C330.97,209.30 328.43,211.00 325.62,213.36 C318.39,219.42 310.97,223.69 301.79,227.08 C293.18,230.25 292.00,230.49 292.00,229.05 C292.00,228.52 295.84,222.46 300.54,215.58 C305.24,208.70 312.55,196.37 316.79,188.18 C321.03,179.98 326.72,170.03 329.44,166.06 C337.84,153.77 352.60,141.50 367.43,134.49 C368.91,133.79 370.31,133.20 371.41,132.80 C371.43,132.87 371.46,132.93 371.50,133.00 C371.77,133.44 372.28,133.82 372.74,133.95 C372.09,134.83 371.12,135.96 370.01,137.14 C360.52,147.19 354.75,158.00 354.60,166.00 L 354.50 171.50 L 358.30 171.38 C365.00,171.17 373.86,163.47 394.58,139.85 C417.42,113.83 441.60,97.88 469.59,90.38 C477.72,88.21 496.57,85.67 497.82,86.58 C498.00,86.71 494.33,88.90 489.66,91.44 C476.05,98.86 461.00,114.19 461.00,120.62 C461.00,121.85 461.75,123.61 462.67,124.52 C466.70,128.56 483.68,123.46 512.00,109.71 C538.72,96.74 555.51,90.63 577.40,85.93 C600.93,80.87 631.23,80.75 654.96,85.62 C665.08,87.69 678.09,92.04 677.42,93.13 C677.12,93.61 674.77,94.00 672.19,94.01 C664.97,94.01 648.23,96.77 641.00,99.15 C625.26,104.31 614.71,111.73 617.01,116.02 C619.62,120.89 628.53,122.67 657.00,124.00 C696.88,125.86 716.71,128.70 737.50,135.51 C756.33,141.68 769.12,147.81 784.24,157.92 C794.97,165.09 814.64,183.16 813.58,184.87 C813.24,185.41 810.98,184.85 808.25,183.53 C790.81,175.14 759.02,171.12 753.53,176.61 C751.17,178.98 751.66,180.67 756.11,185.50 C760.33,190.08 766.32,193.62 790.00,205.57 C837.79,229.67 870.50,260.03 889.58,297.99 C894.81,308.38 901.54,326.79 900.50,327.83 C900.27,328.06 896.64,324.59 892.42,320.11 C877.76,304.52 859.32,293.00 849.03,293.00 C844.02,293.00 844.00,293.01 844.01,296.25 C844.03,299.78 850.13,311.80 855.29,318.45 C857.02,320.68 861.20,325.42 864.59,329.00 C898.41,364.65 916.23,395.14 924.01,430.65 C926.61,442.56 927.15,463.92 925.11,474.24 C924.69,476.39 924.22,478.01 923.78,479.03 C923.66,478.48 923.42,477.84 923.10,477.29 C922.14,475.64 922.06,475.66 922.03,477.58 C922.01,478.74 922.32,479.78 922.71,480.32 C922.28,480.21 922.00,479.07 922.00,476.80 C922.00,468.16 912.82,447.54 905.69,440.17 C900.20,434.50 898.54,433.64 895.87,435.07 C893.88,436.14 893.77,436.76 894.31,444.36 C894.62,448.84 896.23,457.23 897.87,463.00 C906.95,494.86 905.42,520.40 892.78,548.00 C882.11,571.29 862.12,594.08 842.92,604.87 L 842.34 605.19 C838.39,607.41 837.22,608.07 836.39,607.77 C836.00,607.64 835.69,607.29 835.20,606.80 C833.54,605.14 833.70,602.34 835.56,600.25 C843.67,591.17 847.34,580.81 848.94,562.50 C850.81,540.99 849.66,509.97 846.49,496.50 C845.72,493.20 844.39,485.77 843.53,480.00 C839.86,455.14 828.63,422.56 818.76,408.17 C817.13,405.79 814.69,401.11 813.33,397.77 C809.43,388.19 797.08,363.91 793.86,359.50 C792.25,357.30 787.84,350.81 784.05,345.09 C772.38,327.44 761.34,314.41 739.77,292.83 C716.97,270.02 703.89,258.96 685.00,246.51 C660.33,230.24 630.53,217.28 602.02,210.41 C534.97,194.25 458.57,207.13 396.36,245.10 C389.96,249.00 385.55,251.57 382.17,253.22 C382.68,252.87 383.00,252.58 383.00,252.45 C383.00,252.17 381.67,252.64 380.05,253.47 C378.43,254.31 375.02,255.00 372.49,255.00 L 367.87 255.00 L 373.47 248.41 C379.15,241.71 383.10,234.92 385.60,227.57 C386.82,223.98 386.81,223.74 385.53,225.50 C383.07,228.86 381.84,230.33 377.59,234.93 C373.87,238.96 373.80,239.12 376.88,236.64 C378.73,235.14 380.47,234.13 380.73,234.39 C380.73,234.40 380.74,234.41 380.75,234.41 C380.44,234.22 377.18,236.46 373.44,239.44 C369.67,242.45 363.65,246.61 360.07,248.70 C356.49,250.79 350.94,254.47 347.74,256.87 C346.46,257.82 345.21,258.86 344.03,259.93 C348.39,255.64 348.53,255.33 345.10,257.99 C340.92,261.24 332.00,272.21 332.00,274.11 C332.00,275.44 333.04,275.16 338.00,272.50 C340.02,271.42 341.44,270.49 341.60,270.17 C343.63,269.59 346.55,268.84 349.54,268.14 C357.18,266.36 361.38,266.07 376.54,266.22 C390.87,266.37 395.81,266.05 401.00,264.67 C408.81,262.58 418.29,258.28 424.55,253.97 C427.07,252.23 429.42,251.09 429.77,251.44 C431.13,252.79 423.78,265.16 417.84,271.51 C407.32,282.76 397.19,288.02 377.25,292.59 C371.61,293.89 363.73,296.46 359.75,298.31 C347.62,303.95 336.94,314.07 338.58,318.36 C340.13,322.39 355.35,324.36 366.00,321.92 C371.34,320.69 381.78,316.26 384.26,314.16 C386.61,312.18 387.45,313.25 385.82,316.15 C381.85,323.22 373.50,332.19 366.59,336.81 C354.02,345.22 341.07,348.88 323.50,348.98 C318.55,349.02 311.47,349.48 307.77,350.01 C300.92,351.00 287.36,355.35 281.00,358.59 C257.47,370.58 243.99,390.71 252.63,400.97 C255.93,404.90 261.19,407.61 267.27,408.52 C269.87,408.91 272.00,409.54 272.00,409.92 C272.00,411.13 258.74,416.91 252.36,418.48 C248.98,419.32 244.25,420.00 241.86,420.00 C234.88,420.00 221.94,417.18 216.27,414.42 C210.80,411.76 202.00,402.80 202.00,399.90 C202.00,399.00 203.57,397.19 205.49,395.88 C209.30,393.29 209.68,391.81 207.50,388.00 C206.02,385.41 205.42,377.57 206.75,378.17 C207.16,378.36 209.80,379.72 212.61,381.20 L 217.73 383.90 L 220.27 381.20 C221.67,379.71 224.13,375.77 225.73,372.44 C230.16,363.23 234.19,357.91 242.72,350.06 C251.27,342.17 252.91,339.87 252.96,335.68 C253.09,325.65 242.25,321.91 229.46,327.56 C224.91,329.57 220.67,333.07 209.83,343.74 C194.54,358.79 194.20,359.47 198.53,366.50 C199.88,368.70 200.99,371.06 200.99,371.75 C201.00,373.96 194.74,373.11 188.16,370.00 C184.67,368.35 181.04,367.00 180.09,367.00 C177.17,367.00 168.87,370.17 168.37,371.47 C168.11,372.15 169.05,374.86 170.45,377.50 C171.85,380.14 173.00,382.46 173.00,382.65 C173.00,382.84 171.89,383.00 170.53,383.00 C167.06,383.00 157.52,378.61 154.57,375.66 C153.21,374.30 150.57,372.68 148.71,372.07 C144.10,370.55 139.46,365.77 137.44,360.47 C134.78,353.51 135.75,339.81 139.34,333.68 C144.61,324.69 148.88,322.62 150.54,328.25 C151.41,331.18 151.92,331.53 155.76,331.81 C158.92,332.04 161.32,331.41 165.08,329.36 C172.32,325.42 181.97,316.21 186.43,308.99 C190.16,302.94 190.24,302.63 189.44,296.64 C188.99,293.26 188.62,286.67 188.60,282.00 C188.57,271.48 190.66,266.93 201.93,253.00 C223.59,226.24 238.85,194.57 245.04,163.50 C246.72,155.07 247.24,148.81 247.27,136.71 C247.31,122.81 247.50,120.95 248.91,121.22 C251.28,121.67 255.50,130.21 258.15,139.92 C260.22,147.46 260.49,150.62 260.44,166.00 C260.38,182.16 260.14,184.46 257.25,196.00 C255.53,202.88 253.40,210.48 252.51,212.90 C251.56,215.50 251.09,217.30 251.12,218.30 C250.80,217.33 250.20,218.08 248.90,220.97 C245.00,229.68 247.47,228.09 258.94,214.50 ZM 216.67 302.33 C218.95,304.61 228.10,301.54 232.24,297.11 C235.39,293.73 242.82,278.48 241.80,277.47 C241.18,276.85 232.13,279.94 229.00,281.84 C224.66,284.47 219.89,289.37 217.91,293.21 C215.99,296.94 215.42,301.09 216.67,302.33 ZM 157.80 332.47 C157.97,332.34 156.56,332.05 154.66,331.83 C152.17,331.54 151.36,331.78 151.72,332.71 C152.13,333.78 156.40,333.61 157.80,332.47 ZM 337.93 271.37 C337.36,271.48 336.78,271.47 336.36,271.31 C334.81,270.71 335.65,268.74 339.32,264.72 C336.64,267.85 335.17,270.49 336.17,271.11 C336.60,271.37 337.27,271.46 337.93,271.37 ZM 251.33 219.04 C251.86,219.66 253.43,218.61 256.05,215.88 C252.71,219.36 251.74,220.07 251.33,219.04 ZM 376.06 255.56 C374.68,255.88 373.43,256.00 372.10,256.00 C371.93,256.00 371.76,256.00 371.60,256.00 C373.03,255.94 374.61,255.79 376.06,255.56 ZM 373.65 132.37 C373.59,132.33 373.53,132.28 373.46,132.24 C373.54,132.25 373.59,132.26 373.62,132.29 C373.64,132.31 373.65,132.34 373.65,132.37 Z" fill="rgb(204,29,21)"/>
<path d="M 0.00 512.00 L 0.00 0.00 L 512.00 0.00 L 1024.00 0.00 L 1024.00 512.00 L 1024.00 1024.00 L 512.00 1024.00 L 0.00 1024.00 L 0.00 512.00 ZM 579.52 927.67 C593.17,925.12 608.01,920.94 610.29,919.00 C610.72,918.63 606.67,917.79 601.29,917.14 C582.52,914.85 567.11,909.53 564.84,904.55 C563.45,901.51 564.89,900.01 571.50,897.59 C573.70,896.79 580.67,894.25 587.00,891.95 C621.98,879.22 644.94,864.31 672.01,836.75 C681.83,826.74 686.16,823.00 687.88,823.00 C690.12,823.00 690.23,823.27 689.78,827.98 C688.97,836.41 683.72,845.45 674.33,854.62 C669.75,859.09 666.00,863.02 666.00,863.35 C666.00,864.06 680.57,858.78 685.25,856.38 C697.41,850.13 710.47,838.40 718.40,826.60 C723.42,819.13 731.86,802.64 740.85,782.69 C744.40,774.82 745.39,775.07 731.00,780.21 C719.79,784.21 712.75,788.55 703.57,797.13 C696.24,803.97 696.00,804.11 696.01,801.35 C696.03,791.62 703.71,771.70 711.62,760.86 C717.18,753.24 727.09,744.78 735.87,740.15 C740.41,737.75 744.31,735.97 744.53,736.20 C744.75,736.42 741.29,740.85 736.83,746.05 C723.23,761.91 718.36,768.27 715.60,773.75 C714.15,776.64 713.34,779.00 713.79,779.00 C714.24,779.00 716.74,777.65 719.34,776.00 C727.67,770.72 734.21,767.79 746.11,764.01 C752.50,761.98 759.81,758.92 762.36,757.20 C764.91,755.48 767.00,754.31 767.00,754.60 C767.00,754.90 764.92,758.57 762.37,762.77 C748.17,786.16 743.78,803.16 739.99,849.50 C737.72,877.30 731.18,896.91 717.47,917.05 C714.40,921.55 712.05,925.39 712.24,925.58 C712.73,926.07 721.76,920.29 728.23,915.34 C739.15,906.99 752.35,890.30 759.75,875.50 C767.34,860.32 770.52,850.39 778.02,818.50 C783.39,795.70 791.70,775.02 801.84,759.26 C806.75,751.64 808.63,750.18 807.64,754.75 C803.18,775.40 802.84,803.24 806.88,818.35 C810.12,830.50 820.43,850.89 822.36,848.97 C822.66,848.68 822.42,845.08 821.84,840.97 C820.33,830.37 821.42,802.95 823.91,789.00 C827.26,770.19 833.78,751.06 843.17,732.50 C851.73,715.60 852.31,712.00 848.83,697.96 L 846.65 689.21 L 849.58 683.38 C853.67,675.21 865.58,663.51 874.66,658.75 C878.59,656.68 882.47,655.24 883.28,655.55 C884.09,655.86 885.55,657.89 886.53,660.06 C887.50,662.23 888.82,664.00 889.45,664.00 C891.51,664.00 897.81,656.60 899.68,652.00 C902.05,646.15 902.02,634.37 899.63,627.30 C898.21,623.10 896.99,621.52 893.27,619.05 C890.73,617.37 887.90,616.00 886.98,616.00 C886.06,616.00 884.54,615.15 883.60,614.11 C881.09,611.33 871.27,607.23 865.25,606.43 C862.36,606.05 860.00,606.02 860.00,606.36 C860.00,606.70 861.58,609.05 863.50,611.57 C865.42,614.09 867.00,616.82 867.00,617.63 C867.00,618.44 865.31,619.76 863.25,620.56 C861.19,621.36 858.40,622.58 857.05,623.27 C854.94,624.35 853.97,624.20 850.13,622.26 C846.79,620.57 843.94,620.00 838.83,620.00 C835.07,620.00 832.00,620.27 832.00,620.61 C832.00,620.94 833.28,622.85 834.86,624.86 C841.12,632.85 841.13,632.68 833.40,639.80 C815.97,655.87 805.48,662.56 795.96,663.69 C787.62,664.68 779.00,660.16 779.00,654.80 C779.00,653.84 782.62,649.10 787.05,644.27 C795.16,635.44 802.89,622.14 804.50,614.25 C805.09,611.34 805.52,611.00 808.60,611.00 C810.50,611.00 814.51,611.86 817.51,612.92 C820.52,613.98 823.19,614.51 823.44,614.10 C823.95,613.27 819.92,604.68 817.43,601.28 C815.85,599.13 815.91,598.98 819.40,596.93 C823.69,594.39 823.85,593.16 820.37,589.03 C813.19,580.50 791.95,576.61 773.67,580.48 C766.61,581.98 755.93,586.84 751.20,590.71 L 748.50 592.93 L 752.20 592.96 C758.39,593.02 765.96,595.06 768.68,597.40 C772.65,600.81 773.05,608.33 769.65,615.29 C764.34,626.15 749.08,639.91 735.71,645.91 C727.70,649.50 725.44,650.16 707.58,654.10 C682.34,659.68 668.31,665.72 658.93,675.08 C653.71,680.29 647.00,690.30 647.00,692.88 C647.00,693.51 650.23,692.40 654.17,690.41 C658.12,688.43 663.41,686.17 665.92,685.41 C670.86,683.91 690.00,683.45 690.00,684.84 C690.00,685.30 686.88,688.69 683.06,692.37 C676.96,698.26 674.11,700.03 659.55,707.01 C650.44,711.37 640.40,716.70 637.24,718.85 C629.97,723.80 620.92,733.28 618.00,739.00 C615.23,744.43 611.83,754.16 612.47,754.80 C612.73,755.07 614.78,753.62 617.03,751.59 C619.27,749.57 622.21,747.41 623.55,746.79 C624.90,746.18 626.00,745.37 626.00,744.99 C626.00,743.33 641.14,737.55 653.28,734.57 C668.88,730.73 677.06,727.95 686.23,723.37 C689.92,721.51 693.20,720.00 693.51,720.00 C694.61,720.00 691.63,724.51 687.92,728.47 C685.85,730.69 683.33,733.40 682.33,734.51 C678.20,739.05 662.83,751.19 653.00,757.69 C623.37,777.29 593.22,790.48 558.76,798.93 C501.25,813.02 439.63,808.14 381.30,784.85 C324.73,762.26 275.53,722.64 236.83,668.50 C229.94,658.85 229.66,658.42 220.35,642.81 C200.45,609.43 184.87,566.98 178.59,529.00 C172.49,492.13 173.12,457.35 180.48,425.00 C183.11,413.43 188.90,396.19 192.69,388.65 C194.04,385.98 194.95,383.61 194.72,383.38 C194.48,383.15 190.07,384.34 184.90,386.03 C161.71,393.61 139.48,411.29 123.30,435.02 C111.64,452.12 102.90,474.35 99.51,495.50 C97.81,506.10 97.79,526.79 99.48,522.00 C103.67,510.15 115.11,494.00 119.32,494.00 C123.18,494.00 120.69,511.64 113.82,533.00 C97.89,582.49 100.24,636.66 120.18,679.99 C124.49,689.33 132.67,703.00 133.96,703.00 C134.42,703.00 134.31,701.09 133.73,698.75 C133.15,696.41 132.63,686.62 132.59,677.00 C132.51,662.43 132.79,658.86 134.23,655.68 C135.70,652.42 136.36,651.91 138.73,652.18 C144.99,652.90 154.21,673.52 160.54,701.00 C167.21,729.92 170.09,740.23 175.41,754.24 C182.13,771.92 192.73,791.10 204.23,806.40 C211.88,816.58 231.10,835.77 241.14,843.25 C250.49,850.22 258.85,855.48 259.52,854.82 C259.79,854.54 257.81,850.98 255.11,846.91 C241.58,826.48 231.16,797.69 236.54,795.62 C239.00,794.68 245.35,797.36 252.17,802.23 C261.35,808.79 272.43,820.85 289.80,843.16 C310.41,869.66 322.78,881.88 342.00,894.72 C358.57,905.80 381.25,915.78 401.50,920.90 C408.85,922.76 425.49,924.89 426.32,924.07 C426.77,923.63 424.97,922.01 422.32,920.47 C405.09,910.46 386.83,891.36 386.60,883.10 L 386.50 879.50 L 394.00 879.64 C403.54,879.82 417.15,884.55 431.43,892.67 C470.07,914.64 496.29,924.29 530.00,928.97 C539.24,930.26 570.01,929.45 579.52,927.67 ZM 842.92 604.87 C862.12,594.08 882.11,571.29 892.78,548.00 C905.42,520.40 906.95,494.86 897.87,463.00 C896.23,457.23 894.62,448.84 894.31,444.36 C893.77,436.76 893.88,436.14 895.87,435.07 C898.54,433.64 900.20,434.50 905.69,440.17 C912.82,447.54 922.00,468.16 922.00,476.80 C922.00,482.49 923.77,481.04 925.11,474.24 C927.15,463.92 926.61,442.56 924.01,430.65 C916.23,395.14 898.41,364.65 864.59,329.00 C861.20,325.42 857.02,320.68 855.29,318.45 C850.13,311.80 844.03,299.78 844.01,296.25 C844.00,293.01 844.02,293.00 849.03,293.00 C859.32,293.00 877.76,304.52 892.42,320.11 C896.64,324.59 900.27,328.06 900.50,327.83 C901.54,326.79 894.81,308.38 889.58,297.99 C870.50,260.03 837.79,229.67 790.00,205.57 C766.32,193.62 760.33,190.08 756.11,185.50 C751.66,180.67 751.17,178.98 753.53,176.61 C759.02,171.12 790.81,175.14 808.25,183.53 C810.98,184.85 813.24,185.41 813.58,184.87 C814.64,183.16 794.97,165.09 784.24,157.92 C769.12,147.81 756.33,141.68 737.50,135.51 C716.71,128.70 696.88,125.86 657.00,124.00 C628.53,122.67 619.62,120.89 617.01,116.02 C614.71,111.73 625.26,104.31 641.00,99.15 C648.23,96.77 664.97,94.01 672.19,94.01 C674.77,94.00 677.12,93.61 677.42,93.13 C678.09,92.04 665.08,87.69 654.96,85.62 C631.23,80.75 600.93,80.87 577.40,85.93 C555.51,90.63 538.72,96.74 512.00,109.71 C483.68,123.46 466.70,128.56 462.67,124.52 C461.75,123.61 461.00,121.85 461.00,120.62 C461.00,114.19 476.05,98.86 489.66,91.44 C494.33,88.90 498.00,86.71 497.82,86.58 C496.57,85.67 477.72,88.21 469.59,90.38 C441.60,97.88 417.42,113.83 394.58,139.85 C373.86,163.47 365.00,171.17 358.30,171.38 L 354.50 171.50 L 354.60 166.00 C354.75,158.00 360.52,147.19 370.01,137.14 C372.27,134.75 373.90,132.56 373.62,132.29 C373.35,132.02 370.56,133.01 367.43,134.49 C352.60,141.50 337.84,153.77 329.44,166.06 C326.72,170.03 321.03,179.98 316.79,188.18 C312.55,196.37 305.24,208.70 300.54,215.58 C295.84,222.46 292.00,228.52 292.00,229.05 C292.00,230.49 293.18,230.25 301.79,227.08 C310.97,223.69 318.39,219.42 325.62,213.36 C328.43,211.00 330.97,209.30 331.25,209.58 C332.33,210.67 329.73,218.74 325.38,227.81 C321.71,235.46 319.47,238.60 313.60,244.38 C306.19,251.66 296.60,257.78 295.47,255.95 C295.13,255.40 298.87,250.70 303.78,245.51 C312.39,236.42 316.90,229.85 315.00,229.18 C314.50,229.01 312.11,230.02 309.69,231.44 C307.27,232.86 302.86,234.76 299.89,235.66 C291.39,238.23 277.58,240.79 276.66,239.97 C275.57,238.99 280.40,230.37 289.70,216.71 C304.60,194.81 312.33,174.27 314.99,149.50 C317.33,127.74 321.36,113.47 330.10,96.01 C333.27,89.69 335.71,84.37 335.53,84.19 C334.59,83.26 326.82,88.48 321.78,93.42 C308.33,106.60 300.81,121.75 292.50,152.38 C290.03,161.47 286.01,171.83 282.55,178.00 C275.67,190.25 272.34,195.62 268.49,200.65 C266.02,203.87 263.21,207.57 262.25,208.88 C261.29,210.20 258.50,213.35 256.05,215.88 C250.98,221.15 249.85,220.19 252.51,212.90 C253.40,210.48 255.53,202.88 257.25,196.00 C260.14,184.46 260.38,182.16 260.44,166.00 C260.49,150.62 260.22,147.46 258.15,139.92 C255.50,130.21 251.28,121.67 248.91,121.22 C247.50,120.95 247.31,122.81 247.27,136.71 C247.24,148.81 246.72,155.07 245.04,163.50 C238.85,194.57 223.59,226.24 201.93,253.00 C190.66,266.93 188.57,271.48 188.60,282.00 C188.62,286.67 188.99,293.26 189.44,296.64 C190.24,302.63 190.16,302.94 186.43,308.99 C181.97,316.21 172.32,325.42 165.08,329.36 C161.32,331.41 158.92,332.04 155.76,331.81 C151.92,331.53 151.41,331.18 150.54,328.25 C148.88,322.62 144.61,324.69 139.34,333.68 C135.75,339.81 134.78,353.51 137.44,360.47 C139.46,365.77 144.10,370.55 148.71,372.07 C150.57,372.68 153.21,374.30 154.57,375.66 C157.52,378.61 167.06,383.00 170.53,383.00 C171.89,383.00 173.00,382.84 173.00,382.65 C173.00,382.46 171.85,380.14 170.45,377.50 C169.05,374.86 168.11,372.15 168.37,371.47 C168.87,370.17 177.17,367.00 180.09,367.00 C181.04,367.00 184.67,368.35 188.16,370.00 C194.74,373.11 201.00,373.96 200.99,371.75 C200.99,371.06 199.88,368.70 198.53,366.50 C194.20,359.47 194.54,358.79 209.83,343.74 C220.67,333.07 224.91,329.57 229.46,327.56 C242.25,321.91 253.09,325.65 252.96,335.68 C252.91,339.87 251.27,342.17 242.72,350.06 C234.19,357.91 230.16,363.23 225.73,372.44 C224.13,375.77 221.67,379.71 220.27,381.20 L 217.73 383.90 L 212.61 381.20 C209.80,379.72 207.16,378.36 206.75,378.17 C205.42,377.57 206.02,385.41 207.50,388.00 C209.68,391.81 209.30,393.29 205.49,395.88 C203.57,397.19 202.00,399.00 202.00,399.90 C202.00,402.80 210.80,411.76 216.27,414.42 C221.94,417.18 234.88,420.00 241.86,420.00 C244.25,420.00 248.98,419.32 252.36,418.48 C258.74,416.91 272.00,411.13 272.00,409.92 C272.00,409.54 269.87,408.91 267.27,408.52 C261.19,407.61 255.93,404.90 252.63,400.97 C243.99,390.71 257.47,370.58 281.00,358.59 C287.36,355.35 300.92,351.00 307.77,350.01 C311.47,349.48 318.55,349.02 323.50,348.98 C341.07,348.88 354.02,345.22 366.59,336.81 C373.50,332.19 381.85,323.22 385.82,316.15 C387.45,313.25 386.61,312.18 384.26,314.16 C381.78,316.26 371.34,320.69 366.00,321.92 C355.35,324.36 340.13,322.39 338.58,318.36 C336.94,314.07 347.62,303.95 359.75,298.31 C363.73,296.46 371.61,293.89 377.25,292.59 C397.19,288.02 407.32,282.76 417.84,271.51 C423.78,265.16 431.13,252.79 429.77,251.44 C429.42,251.09 427.07,252.23 424.55,253.97 C418.29,258.28 408.81,262.58 401.00,264.67 C395.81,266.05 390.87,266.37 376.54,266.22 C361.38,266.07 357.18,266.36 349.54,268.14 C344.57,269.30 339.80,270.61 338.95,271.05 C338.09,271.50 336.84,271.52 336.17,271.11 C334.35,269.98 340.74,262.12 347.74,256.87 C350.94,254.47 356.49,250.79 360.07,248.70 C363.65,246.61 369.67,242.45 373.44,239.44 C377.22,236.43 380.51,234.17 380.75,234.42 C381.71,235.37 376.64,243.74 371.93,249.00 C369.22,252.02 367.00,254.84 367.00,255.25 C367.00,255.66 369.29,256.00 372.10,256.00 C377.39,256.00 381.58,254.12 396.36,245.10 C458.57,207.13 534.97,194.25 602.02,210.41 C630.53,217.28 660.33,230.24 685.00,246.51 C703.89,258.96 716.97,270.02 739.77,292.83 C761.34,314.41 772.38,327.44 784.05,345.09 C787.84,350.81 792.25,357.30 793.86,359.50 C797.08,363.91 809.43,388.19 813.33,397.77 C814.69,401.11 817.13,405.79 818.76,408.17 C828.63,422.56 839.86,455.14 843.53,480.00 C844.39,485.77 845.72,493.20 846.49,496.50 C849.66,509.97 850.81,540.99 848.94,562.50 C847.34,580.81 843.67,591.17 835.56,600.25 C833.70,602.34 833.54,605.14 835.20,606.80 C836.79,608.39 836.53,608.45 842.92,604.87 ZM 792.93 713.13 C793.55,711.97 794.94,708.17 796.02,704.67 C797.10,701.18 799.01,696.80 800.27,694.93 C803.06,690.78 813.74,685.00 818.61,685.00 C821.84,685.00 822.00,685.16 821.40,687.75 C820.16,693.09 816.86,699.54 813.70,702.81 C811.94,704.64 806.67,707.99 802.00,710.26 C797.33,712.54 793.12,714.59 792.65,714.82 C792.19,715.04 792.31,714.28 792.93,713.13 ZM 216.67 302.33 C215.42,301.09 215.99,296.94 217.91,293.21 C219.89,289.37 224.66,284.47 229.00,281.84 C232.13,279.94 241.18,276.85 241.80,277.47 C242.82,278.48 235.39,293.73 232.24,297.11 C228.10,301.54 218.95,304.61 216.67,302.33 Z" fill="rgb(253,253,253)"/>
</g>
</svg>